<mxfile host="app.diagrams.net" modified="2024-05-06T11:58:45.284Z" agent="Mozilla/5.0 (Windows NT 10.0; Win64; x64) AppleWebKit/537.36 (KHTML, like Gecko) Chrome/124.0.0.0 Safari/537.36" version="24.3.1" etag="q_ZK3cASN2_PblU-gvxa" type="github">
  <diagram name="PÃ¡gina-1" id="5HAdsHlL2WSGtSlBqKRX">
    <mxGraphModel>
      <root>
        <mxCell id="0" />
        <mxCell id="1" parent="0" />
      </root>
    </mxGraphModel>
  </diagram>
</mxfile>
